<svg xmlns="http://www.w3.org/2000/svg" width="22.81" height="15.209" viewBox="0 0 22.81 15.209">
  <path id="eye" d="M1202.4,704.912a4.408,4.408,0,0,0,1.685-.322,4.384,4.384,0,0,0,2.4-2.334,4.309,4.309,0,0,0,0-3.3,4.286,4.286,0,0,0-.963-1.4,4.238,4.238,0,0,0-1.432-.934,4.589,4.589,0,0,0-3.371,0,4.391,4.391,0,0,0-2.4,2.335,4.309,4.309,0,0,0,0,3.3,4.392,4.392,0,0,0,2.4,2.335A4.405,4.405,0,0,0,1202.4,704.912Zm0-1.469a2.944,2.944,0,0,1-1.609-.483,2.856,2.856,0,0,1-1.242-2.915,2.939,2.939,0,0,1,.786-1.456,3,3,0,0,1,4.131,0,2.8,2.8,0,0,1,.634,3.1,2.9,2.9,0,0,1-1.077,1.276A2.947,2.947,0,0,1,1202.4,703.443Zm0,4.765a11.832,11.832,0,0,1-6.843-2.1,12.916,12.916,0,0,1-4.562-5.5,12.921,12.921,0,0,1,4.562-5.5,12.182,12.182,0,0,1,13.686,0,12.921,12.921,0,0,1,4.562,5.5,12.921,12.921,0,0,1-4.562,5.5,11.832,11.832,0,0,1-6.843,2.1Zm0-1.522a10.572,10.572,0,0,0,5.766-1.66,10.817,10.817,0,0,0,4-4.423,10.926,10.926,0,0,0-19.566,0,10.992,10.992,0,0,0,4.03,4.423A10.572,10.572,0,0,0,1202.4,706.686Z" transform="translate(-1191 -693)" fill="#676767"/>
</svg>
