<svg xmlns="http://www.w3.org/2000/svg" width="20.167" height="17.417" viewBox="0 0 20.167 17.417">
  <path id="Path_329" data-name="Path 329" d="M54,150.833a.915.915,0,0,0-.652.273L44.1,159.173a.454.454,0,0,0-.137.162.458.458,0,0,0,.409.665h2.292v7.333a.917.917,0,0,0,.917.917H51.25a.917.917,0,0,0,.917-.917v-5.5h3.667v5.5a.917.917,0,0,0,.917.917h3.667a.917.917,0,0,0,.917-.917V160h2.292a.458.458,0,0,0,.409-.665.452.452,0,0,0-.137-.162l-9.24-8.062-.005,0a.915.915,0,0,0-.652-.273Z" transform="translate(-43.917 -150.833)" fill="#dd5106"/>
</svg>
