<svg xmlns="http://www.w3.org/2000/svg" width="35" height="16" viewBox="0 0 35 16">
  <path id="Path_354" data-name="Path 354" d="M36,237v-1.6a2.638,2.638,0,0,1,1.522-2.3,7.65,7.65,0,0,1,3.918-.9q.457,0,.875.038c.279.025.533.051.761.076a11.286,11.286,0,0,0-.38,1.219,5.334,5.334,0,0,0-.152,1.3V237Zm9.13,0v-2.1a3.954,3.954,0,0,1,2.321-3.524,12.209,12.209,0,0,1,6.049-1.314,12.188,12.188,0,0,1,6.068,1.314,3.956,3.956,0,0,1,2.3,3.524V237Zm19.326,0v-2.171a6.069,6.069,0,0,0-.133-1.3,6.546,6.546,0,0,0-.4-1.219c.254-.025.52-.051.8-.076s.558-.038.837-.038a7.608,7.608,0,0,1,3.956.9A2.643,2.643,0,0,1,71,235.4V237ZM53.5,231.781a11.393,11.393,0,0,0-4.85.876q-1.845.876-1.807,2.286v.305H60.158V234.9q.038-1.372-1.788-2.248A11.369,11.369,0,0,0,53.5,231.781Zm-12.06-.762a2.232,2.232,0,0,1-1.636-.686,2.281,2.281,0,0,1-.685-1.676,2.176,2.176,0,0,1,.685-1.619,2.34,2.34,0,0,1,3.272,0,2.334,2.334,0,0,1-1.636,3.981Zm24.12,0a2.232,2.232,0,0,1-1.636-.686,2.282,2.282,0,0,1-.685-1.676,2.176,2.176,0,0,1,.685-1.619,2.329,2.329,0,0,1,3.291,3.295A2.214,2.214,0,0,1,65.56,231.019Zm-12.06-2.1a3.988,3.988,0,1,1,3.957-3.962,3.852,3.852,0,0,1-1.141,2.8A3.789,3.789,0,0,1,53.5,228.924Zm0-6.172a2.158,2.158,0,0,0-1.56.629,2.113,2.113,0,0,0-.647,1.581,2.23,2.23,0,0,0,.628,1.581,2.123,2.123,0,0,0,1.617.667,2.062,2.062,0,0,0,1.541-.648,2.21,2.21,0,0,0,.628-1.6,2.148,2.148,0,0,0-2.207-2.21Z" transform="translate(-36 -221)" fill="#3f3532"/>
</svg>
