<svg xmlns="http://www.w3.org/2000/svg" width="20" height="20" viewBox="0 0 20 20">
  <path id="Path_330" data-name="Path 330" d="M51.7,308l-.5-3.15a6.73,6.73,0,0,1-1-.475,6.842,6.842,0,0,1-.925-.625l-2.95,1.35L44,301l2.7-1.975a2.974,2.974,0,0,1-.062-.513c-.008-.191-.013-.362-.013-.512s0-.321.013-.512a2.974,2.974,0,0,1,.063-.513L44,295l2.325-4.1,2.95,1.35a6.842,6.842,0,0,1,.925-.625,5.172,5.172,0,0,1,1-.45L51.7,288h4.6l.5,3.15a8.107,8.107,0,0,1,1.013.463,4.29,4.29,0,0,1,.912.637l2.95-1.35L64,295l-2.7,1.925a3.531,3.531,0,0,1,.063.537c.008.192.013.371.013.538s0,.342-.013.525a3.491,3.491,0,0,1-.062.525L64,301l-2.325,4.1-2.95-1.35a8.34,8.34,0,0,1-.912.638,4.369,4.369,0,0,1-1.013.462L56.3,308Zm2.3-6.75a3.244,3.244,0,1,0-2.3-.95A3.134,3.134,0,0,0,54,301.25Zm0-1.5a1.749,1.749,0,1,1,1.237-.512A1.688,1.688,0,0,1,54,299.75Zm-1.1,6.75h2.2l.35-2.8a5.9,5.9,0,0,0,1.563-.625,6.4,6.4,0,0,0,1.337-1.025L61,303.2l1-1.8-2.35-1.725c.067-.283.121-.563.162-.838a5.575,5.575,0,0,0,.063-.837,6.957,6.957,0,0,0-.05-.837,5.171,5.171,0,0,0-.175-.838L62,294.6l-1-1.8-2.65,1.15a5.562,5.562,0,0,0-1.3-1.087,4.206,4.206,0,0,0-1.6-.563l-.35-2.8H52.9l-.35,2.8a5.315,5.315,0,0,0-1.587.6,5.5,5.5,0,0,0-1.312,1.05L47,292.8l-1,1.8,2.35,1.725c-.067.283-.121.563-.162.838a5.636,5.636,0,0,0,0,1.674c.042.275.1.555.162.838L46,301.4l1,1.8,2.65-1.15a6.4,6.4,0,0,0,1.337,1.025,5.9,5.9,0,0,0,1.563.625Z" transform="translate(-44 -288)" fill="#3f3532"/>
</svg>
